<svg version="1.1" id="Layer_1" xmlns="http://www.w3.org/2000/svg" xmlns:xlink="http://www.w3.org/1999/xlink" x="0px" y="0px"
	 width="100%" viewBox="0 0 171 152" enable-background="new 0 0 171 152" xml:space="preserve">
<path fill="#F8F8F8" opacity="1.000000" stroke="none" 
	d="
M100.000000,153.000000 
	C66.666672,153.000000 33.833340,153.000000 1.000009,153.000000 
	C1.000006,102.333344 1.000006,51.666687 1.000003,1.000022 
	C57.999985,1.000015 114.999969,1.000015 171.999969,1.000008 
	C171.999969,51.666645 171.999969,102.333290 171.999985,152.999969 
	C148.166672,153.000000 124.333336,153.000000 100.000000,153.000000 
M103.904076,107.953842 
	C101.878250,108.085175 99.852432,108.216507 96.948105,108.591377 
	C96.483437,113.302444 96.018776,118.013519 95.533356,122.935005 
	C97.712143,122.935005 98.732834,123.082100 99.692795,122.903267 
	C101.487961,122.568840 103.247910,122.045334 105.022507,121.600502 
	C103.408249,120.709145 101.783684,119.835381 100.193161,118.903526 
	C100.000717,118.790771 99.992020,118.364410 99.900574,118.082596 
	C103.816719,116.681351 103.816719,116.681351 104.500801,113.531769 
	C104.557480,112.880272 104.614166,112.228775 104.853928,110.935768 
	C104.616150,110.150513 104.378372,109.365250 103.904076,107.953842 
M71.870300,68.799973 
	C69.762596,69.913353 67.654884,71.026726 65.028023,72.414352 
	C65.947426,73.800034 67.072716,75.496025 67.818642,77.798050 
	C61.813751,76.209549 59.554764,72.620064 61.318638,66.918266 
	C63.087967,61.198841 65.098557,55.551647 67.107758,49.909962 
	C67.972389,47.482147 68.442520,45.173100 65.424309,44.140926 
	C62.550819,43.158245 61.197201,44.981106 60.357048,47.493793 
	C58.299725,53.646736 55.622757,59.656219 54.265511,65.954102 
	C53.526066,69.385246 54.001514,73.812019 55.653431,76.853050 
	C58.143215,81.436501 57.406857,85.634033 57.128891,90.372627 
	C52.484276,90.372627 48.292339,90.029640 44.203175,90.528709 
	C42.374485,90.751900 40.752056,92.665077 39.036022,93.811302 
	C40.756252,94.912552 42.470573,96.963394 44.197590,96.974136 
	C75.353279,97.167976 106.510796,97.165779 137.666656,96.986336 
	C139.461884,96.975998 142.554810,95.327660 142.784454,94.039009 
	C143.411896,90.518143 140.208374,90.447487 137.694061,90.395355 
	C133.417908,90.306702 129.138596,90.370956 123.137337,90.370956 
	C124.613510,85.052216 126.025482,80.832687 126.909378,76.505280 
	C127.615448,73.048447 128.566711,69.262833 127.835274,65.973083 
	C126.471474,59.839180 123.912193,53.976360 121.954720,47.966755 
	C121.092598,45.319958 119.824471,43.084465 116.693085,44.149181 
	C113.269699,45.313175 114.476929,48.136791 115.218300,50.476547 
	C117.075813,56.338879 119.054787,62.162731 120.518265,68.436897 
	C120.671707,69.623833 120.825157,70.810760 120.850708,72.678627 
	C119.343102,73.911392 117.835487,75.144150 115.984123,75.586784 
	C116.259926,74.049690 116.535736,72.512604 116.903770,70.461510 
	C114.150291,70.298798 111.648094,70.150925 109.051590,69.376678 
	C109.106995,68.959404 109.162399,68.542137 110.057373,68.112617 
	C112.167290,68.008125 114.277199,67.903633 116.973351,67.770111 
	C114.842308,61.284687 113.084595,55.243210 110.765289,49.425629 
	C110.264938,48.170601 107.740707,47.722439 105.752052,46.353397 
	C104.040543,45.554592 102.329033,44.755791 100.617523,43.956985 
	C100.041214,45.678604 99.022133,47.392502 98.991943,49.123646 
	C98.946182,51.747555 99.587982,54.383465 99.486786,57.245342 
	C99.781670,57.865097 100.076561,58.484848 100.662544,59.878651 
	C100.792992,61.248226 100.923439,62.617802 100.579437,64.231117 
	C100.908348,64.848122 101.237259,65.465126 101.777443,66.834259 
	C101.732765,67.865318 101.688080,68.896378 100.754761,69.946503 
	C95.977722,69.946503 91.200684,69.946503 85.943390,69.946503 
	C87.262367,73.157463 88.110123,75.221245 88.182686,77.278419 
	C81.115807,74.649910 79.710899,72.441353 80.718826,65.132034 
	C81.442986,59.880531 82.539345,54.669643 83.007935,49.399582 
	C83.166183,47.619785 81.907265,45.713985 81.296013,43.865768 
	C79.508507,44.885086 77.720993,45.904404 75.147995,46.904186 
	C73.786652,47.782131 71.652328,48.370014 71.195511,49.587383 
	C69.021515,55.380749 67.303925,61.345379 65.174744,68.031471 
	C67.647804,68.031471 69.716446,68.031471 71.870300,68.799973 
M67.666031,33.713688 
	C65.667007,33.718338 63.514236,33.263943 61.715427,33.866394 
	C60.150513,34.390511 58.985508,36.108692 57.643787,37.299217 
	C58.916931,38.400822 60.045425,39.806309 61.510891,40.503880 
	C62.601387,41.022961 64.128326,40.634186 65.460884,40.634338 
	C82.452927,40.636307 99.444962,40.637001 116.437004,40.632755 
	C117.935616,40.632381 119.655884,41.049362 120.874222,40.454861 
	C122.258667,39.779297 123.761795,38.322216 124.099686,36.933830 
	C124.284798,36.173222 122.336716,34.516388 121.046478,33.889736 
	C119.959419,33.361778 118.433235,33.717461 117.101425,33.717060 
	C100.942329,33.712208 84.783226,33.713863 67.666031,33.713688 
M50.759335,115.571457 
	C50.763180,117.226959 50.564362,118.918694 50.851227,120.523605 
	C51.008888,121.405693 51.984386,122.141594 52.591145,122.943405 
	C53.285221,122.220726 54.231960,121.607834 54.606354,120.746239 
	C55.028706,119.774269 54.936092,118.578537 55.102131,117.190109 
	C56.777897,117.311172 58.153671,117.410561 59.585907,117.514023 
	C59.723503,118.529350 59.641579,119.264717 59.932861,119.795151 
	C60.538864,120.898735 61.342522,121.893784 62.064945,122.933441 
	C62.655121,121.777901 63.646435,120.658630 63.754837,119.459541 
	C64.007202,116.668030 63.965652,113.828255 63.756737,111.029419 
	C63.690804,110.146156 62.715523,109.330780 62.156414,108.484337 
	C61.409504,109.156776 60.041637,109.809021 60.019001,110.505005 
	C59.895382,114.306152 57.581295,113.603470 56.707077,113.501648 
	C54.659199,111.225922 53.457363,109.890373 52.255527,108.554817 
	C51.757084,110.271523 51.245708,111.984680 50.772198,113.708237 
	C50.687603,114.016159 50.759796,114.367149 50.759335,115.571457 
M68.617439,110.011925 
	C64.138512,115.471611 65.744171,121.886879 71.904839,122.968178 
	C75.357803,123.574234 78.729073,122.612953 79.748962,119.266350 
	C80.504860,116.785965 80.297455,113.191689 78.961334,111.078651 
	C76.734207,107.556503 72.887756,107.532433 68.617439,110.011925 
M45.845802,114.606499 
	C46.456306,113.250938 47.066807,111.895370 47.722549,110.439354 
	C45.020149,107.709206 41.815945,106.832962 39.190155,109.962982 
	C36.520367,113.145447 38.906826,115.579453 41.641872,117.479546 
	C40.412609,118.186241 39.137234,118.919449 37.618088,119.792809 
	C40.350296,123.762154 43.676445,124.180153 46.830448,121.990303 
	C49.755848,119.959183 49.182201,117.206932 45.845802,114.606499 
M118.151886,114.330330 
	C117.623878,112.931297 117.479950,110.954865 116.468765,110.282242 
	C115.257797,109.476723 112.078232,109.230499 111.867828,109.696899 
	C110.017380,113.798721 108.638527,118.113304 107.120041,122.364899 
	C107.421867,122.772644 107.723694,123.180382 108.025520,123.588127 
	C111.864799,120.739502 115.703537,118.192879 119.527054,124.159813 
	C119.802574,123.596436 120.078102,123.033058 120.353630,122.469681 
	C119.698082,120.008171 119.042534,117.546654 118.151886,114.330330 
M142.908539,119.306526 
	C141.650650,119.107544 140.392746,118.908562 139.134857,118.709572 
	C139.183594,118.374611 139.232315,118.039650 139.281052,117.704689 
	C140.778763,117.335960 142.276459,116.967224 143.471207,116.673080 
	C143.663422,113.885811 143.829865,111.472145 144.014145,108.799820 
	C141.138397,108.799820 138.287415,108.799820 135.514496,108.799820 
	C135.514496,113.685326 135.514496,118.201134 135.514496,122.965248 
	C137.945999,122.965248 139.922729,122.953003 141.899261,122.968132 
	C144.859818,122.990784 144.787384,121.510101 142.908539,119.306526 
M131.286545,115.447304 
	C127.202156,113.291031 131.275513,112.289070 132.240051,110.790138 
	C129.461868,107.751007 126.054382,106.815971 123.682693,109.924995 
	C120.378883,114.255959 124.575554,116.472847 127.969246,118.574730 
	C125.644814,118.853050 123.757545,119.079033 120.889587,119.422432 
	C125.371109,123.151863 128.537460,123.946129 130.816071,122.326759 
	C133.229919,120.611275 133.668427,118.406944 131.286545,115.447304 
M87.783432,118.359138 
	C91.401337,118.113289 93.931976,116.575989 93.504501,112.568092 
	C93.107552,108.846519 89.649277,107.771828 83.047157,109.192390 
	C83.047157,112.227852 82.874290,115.352486 83.121262,118.443573 
	C83.241859,119.952995 84.144562,121.399925 84.693260,122.875145 
	C85.510468,121.539345 86.327675,120.203545 87.783432,118.359138 
z"/>
<path fill="#121212" opacity="1.000000" stroke="none" 
	d="
M116.327881,76.376907 
	C117.835487,75.144150 119.343102,73.911392 121.176270,72.141174 
	C121.329559,70.403152 121.157295,69.202591 120.985031,68.002022 
	C119.054787,62.162731 117.075813,56.338879 115.218300,50.476547 
	C114.476929,48.136791 113.269699,45.313175 116.693085,44.149181 
	C119.824471,43.084465 121.092598,45.319958 121.954720,47.966755 
	C123.912193,53.976360 126.471474,59.839180 127.835274,65.973083 
	C128.566711,69.262833 127.615448,73.048447 126.909378,76.505280 
	C126.025482,80.832687 124.613510,85.052216 123.137337,90.370956 
	C129.138596,90.370956 133.417908,90.306702 137.694061,90.395355 
	C140.208374,90.447487 143.411896,90.518143 142.784454,94.039009 
	C142.554810,95.327660 139.461884,96.975998 137.666656,96.986336 
	C106.510796,97.165779 75.353279,97.167976 44.197590,96.974136 
	C42.470573,96.963394 40.756252,94.912552 39.036018,93.811302 
	C40.752056,92.665077 42.374485,90.751900 44.203175,90.528709 
	C48.292339,90.029640 52.484276,90.372627 57.128891,90.372627 
	C57.406857,85.634033 58.143215,81.436501 55.653431,76.853050 
	C54.001514,73.812019 53.526066,69.385246 54.265511,65.954102 
	C55.622757,59.656219 58.299725,53.646736 60.357048,47.493793 
	C61.197201,44.981106 62.550819,43.158245 65.424309,44.140926 
	C68.442520,45.173100 67.972389,47.482147 67.107758,49.909962 
	C65.098557,55.551647 63.087967,61.198841 61.318638,66.918266 
	C59.554764,72.620064 61.813751,76.209549 68.295845,77.718842 
	C71.491158,78.401398 74.209259,79.163162 76.945831,80.340805 
	C75.192322,89.477020 68.696663,83.139679 64.456535,84.689651 
	C64.456535,86.358437 64.456535,88.097076 64.456535,90.007416 
	C82.362106,90.007416 99.998505,90.007416 117.951042,90.007416 
	C117.851509,87.850563 117.771973,86.126945 117.690186,84.354652 
	C106.314407,86.007858 105.279930,85.538345 105.012711,78.956909 
	C104.998695,78.990486 104.932449,79.020622 105.300690,79.202454 
	C108.117203,78.583939 110.565483,77.783592 113.375626,77.034233 
	C114.532661,76.799950 115.327835,76.514679 116.156609,76.290756 
	C116.190208,76.352112 116.327881,76.376915 116.327881,76.376907 
z"/>
<path fill="#110E0F" opacity="1.000000" stroke="none" 
	d="
M101.053886,63.987377 
	C100.923439,62.617802 100.792992,61.248226 100.640060,59.219994 
	C100.390938,58.045650 100.164307,57.529961 99.937675,57.014275 
	C99.587982,54.383465 98.946182,51.747555 98.991943,49.123646 
	C99.022133,47.392502 100.041214,45.678604 100.617523,43.956985 
	C102.329033,44.755791 104.040543,45.554592 105.875854,47.046162 
	C107.072380,54.534237 108.145096,61.329552 109.217812,68.124863 
	C109.162399,68.542137 109.106995,68.959404 108.983932,70.042274 
	C107.588333,73.478790 106.260391,76.249702 104.932449,79.020622 
	C104.932449,79.020622 104.998695,78.990486 104.717880,79.135513 
	C95.757217,86.009132 88.124947,86.163498 77.796822,79.499062 
	C76.078239,75.441246 74.457298,71.701752 72.927963,67.636360 
	C72.984978,66.863853 72.950386,66.417252 73.139465,65.734360 
	C73.400345,64.647133 73.437569,63.796181 73.611588,62.567390 
	C73.839348,61.126827 73.930328,60.064106 74.256897,58.773170 
	C74.541824,57.683338 74.591164,56.821724 74.752213,55.598869 
	C74.895439,54.486084 74.926956,53.734535 75.173126,52.740116 
	C75.479759,51.652275 75.571762,50.807304 75.778427,49.593544 
	C75.906548,48.457741 75.920021,47.690735 75.933487,46.923725 
	C77.720993,45.904404 79.508507,44.885086 81.296013,43.865768 
	C81.907265,45.713985 83.166183,47.619785 83.007935,49.399582 
	C82.539345,54.669643 81.442986,59.880531 80.718826,65.132034 
	C79.710899,72.441353 81.115807,74.649910 88.846336,77.525192 
	C96.807922,77.651154 99.865250,75.674522 101.643402,69.927437 
	C101.688080,68.896378 101.732765,67.865318 101.758102,66.175095 
	C101.510475,65.006416 101.282181,64.496895 101.053886,63.987377 
z"/>
<path fill="#1A1A1A" opacity="1.000000" stroke="none" 
	d="
M68.145081,33.713757 
	C84.783226,33.713863 100.942329,33.712208 117.101425,33.717060 
	C118.433235,33.717461 119.959419,33.361778 121.046478,33.889736 
	C122.336716,34.516388 124.284798,36.173222 124.099686,36.933830 
	C123.761795,38.322216 122.258667,39.779297 120.874222,40.454861 
	C119.655884,41.049362 117.935616,40.632381 116.437004,40.632755 
	C99.444962,40.637001 82.452927,40.636307 65.460884,40.634338 
	C64.128326,40.634186 62.601387,41.022961 61.510891,40.503880 
	C60.045425,39.806309 58.916931,38.400822 57.643787,37.299217 
	C58.985508,36.108692 60.150513,34.390511 61.715427,33.866394 
	C63.514236,33.263943 65.667007,33.718338 68.145081,33.713757 
z"/>
<path fill="#303030" opacity="1.000000" stroke="none" 
	d="
M50.759468,115.134857 
	C50.759796,114.367149 50.687603,114.016159 50.772198,113.708237 
	C51.245708,111.984680 51.757084,110.271523 52.255527,108.554817 
	C53.457363,109.890373 54.659199,111.225922 56.707077,113.501648 
	C57.581295,113.603470 59.895382,114.306152 60.019001,110.505005 
	C60.041637,109.809021 61.409504,109.156776 62.156418,108.484337 
	C62.715523,109.330780 63.690804,110.146156 63.756737,111.029419 
	C63.965652,113.828255 64.007202,116.668030 63.754837,119.459541 
	C63.646435,120.658630 62.655121,121.777901 62.064949,122.933441 
	C61.342522,121.893784 60.538864,120.898735 59.932861,119.795151 
	C59.641579,119.264717 59.723503,118.529350 59.585907,117.514023 
	C58.153671,117.410561 56.777897,117.311172 55.102131,117.190109 
	C54.936092,118.578537 55.028706,119.774269 54.606354,120.746239 
	C54.231960,121.607834 53.285221,122.220726 52.591141,122.943405 
	C51.984386,122.141594 51.008888,121.405693 50.851227,120.523605 
	C50.564362,118.918694 50.763180,117.226959 50.759468,115.134857 
z"/>
<path fill="#242424" opacity="1.000000" stroke="none" 
	d="
M68.926147,109.801773 
	C72.887756,107.532433 76.734207,107.556503 78.961334,111.078651 
	C80.297455,113.191689 80.504860,116.785965 79.748962,119.266350 
	C78.729073,122.612953 75.357803,123.574234 71.904839,122.968178 
	C65.744171,121.886879 64.138512,115.471611 68.926147,109.801773 
M71.801292,119.024178 
	C74.449593,119.762978 76.649155,119.212372 76.970886,116.212021 
	C77.097847,115.028053 76.121330,112.974976 75.158966,112.611862 
	C73.909637,112.140472 71.143906,112.567482 70.861702,113.306694 
	C70.284225,114.819420 70.928062,116.798378 71.801292,119.024178 
z"/>
<path fill="#2D2D2D" opacity="1.000000" stroke="none" 
	d="
M46.166122,114.796982 
	C49.182201,117.206932 49.755848,119.959183 46.830448,121.990303 
	C43.676445,124.180153 40.350296,123.762154 37.618088,119.792809 
	C39.137234,118.919449 40.412609,118.186241 41.641872,117.479546 
	C38.906826,115.579453 36.520367,113.145447 39.190155,109.962982 
	C41.815945,106.832962 45.020149,107.709206 47.722549,110.439354 
	C47.066807,111.895370 46.456306,113.250938 46.166122,114.796982 
z"/>
<path fill="#1B1B1B" opacity="1.000000" stroke="none" 
	d="
M118.269440,114.707733 
	C119.042534,117.546654 119.698082,120.008171 120.353630,122.469681 
	C120.078102,123.033058 119.802574,123.596436 119.527054,124.159813 
	C115.703537,118.192879 111.864799,120.739502 108.025520,123.588127 
	C107.723694,123.180382 107.421867,122.772644 107.120041,122.364899 
	C108.638527,118.113304 110.017380,113.798721 111.867828,109.696899 
	C112.078232,109.230499 115.257797,109.476723 116.468765,110.282242 
	C117.479950,110.954865 117.623878,112.931297 118.269440,114.707733 
z"/>
<path fill="#292929" opacity="1.000000" stroke="none" 
	d="
M143.277527,119.395683 
	C144.787384,121.510101 144.859818,122.990784 141.899261,122.968132 
	C139.922729,122.953003 137.945999,122.965248 135.514496,122.965248 
	C135.514496,118.201134 135.514496,113.685326 135.514496,108.799820 
	C138.287415,108.799820 141.138397,108.799820 144.014145,108.799820 
	C143.829865,111.472145 143.663422,113.885811 143.471207,116.673080 
	C142.276459,116.967224 140.778763,117.335960 139.281052,117.704689 
	C139.232315,118.039650 139.183594,118.374611 139.134857,118.709572 
	C140.392746,118.908562 141.650650,119.107544 143.277527,119.395683 
z"/>
<path fill="#F58CB5" opacity="1.000000" stroke="none" 
	d="
M109.637589,68.118744 
	C108.145096,61.329552 107.072380,54.534237 106.074196,47.320770 
	C107.740707,47.722439 110.264938,48.170601 110.765289,49.425629 
	C113.084595,55.243210 114.842308,61.284687 116.973351,67.770111 
	C114.277199,67.903633 112.167290,68.008125 109.637589,68.118744 
z"/>
<path fill="#222222" opacity="1.000000" stroke="none" 
	d="
M131.567184,115.685532 
	C133.668427,118.406944 133.229919,120.611275 130.816071,122.326759 
	C128.537460,123.946129 125.371109,123.151863 120.889587,119.422432 
	C123.757545,119.079033 125.644814,118.853050 127.969246,118.574730 
	C124.575554,116.472847 120.378883,114.255959 123.682693,109.924995 
	C126.054382,106.815971 129.461868,107.751007 132.240051,110.790138 
	C131.275513,112.289070 127.202156,113.291031 131.567184,115.685532 
z"/>
<path fill="#232323" opacity="1.000000" stroke="none" 
	d="
M87.464157,118.613441 
	C86.327675,120.203545 85.510468,121.539345 84.693268,122.875145 
	C84.144562,121.399925 83.241859,119.952995 83.121262,118.443573 
	C82.874290,115.352486 83.047157,112.227852 83.047157,109.192390 
	C89.649277,107.771828 93.107552,108.846519 93.504501,112.568092 
	C93.931976,116.575989 91.401337,118.113289 87.464157,118.613441 
z"/>
<path fill="#FE8FBA" opacity="1.000000" stroke="none" 
	d="
M72.915802,65.970642 
	C72.950386,66.417252 72.984978,66.863853 72.664185,67.638893 
	C72.134224,67.988708 71.959648,68.010086 71.785080,68.031471 
	C69.716446,68.031471 67.647804,68.031471 65.174744,68.031471 
	C67.303925,61.345379 69.021515,55.380749 71.195511,49.587383 
	C71.652328,48.370014 73.786652,47.782131 75.540741,46.913956 
	C75.920021,47.690735 75.906548,48.457741 75.480522,49.656403 
	C75.031464,51.053036 74.994972,52.018013 74.958481,52.982990 
	C74.926956,53.734535 74.895439,54.486084 74.454117,55.668236 
	C74.036644,57.066353 74.028976,58.033867 74.021309,59.001381 
	C73.930328,60.064106 73.839348,61.126827 73.332581,62.650635 
	C72.916458,64.064697 72.916130,65.017670 72.915802,65.970642 
z"/>
<path fill="#1F1F1F" opacity="1.000000" stroke="none" 
	d="
M104.019852,113.995895 
	C103.816719,116.681351 103.816719,116.681351 99.899368,118.083000 
	C99.992020,118.364410 100.000717,118.790771 100.193161,118.903526 
	C101.783684,119.835381 103.408249,120.709145 105.022507,121.600502 
	C103.247910,122.045334 101.487961,122.568840 99.692795,122.903267 
	C98.732834,123.082100 97.712143,122.935005 95.533356,122.935005 
	C96.018776,118.013519 96.483437,113.302444 97.813766,108.631561 
	C100.499825,108.641151 102.320206,108.610573 104.140594,108.579994 
	C104.378372,109.365250 104.616150,110.150513 104.345123,111.271103 
	C102.476616,111.824974 101.116905,112.043526 99.757195,112.262070 
	C99.813683,112.726326 99.870171,113.190575 99.926659,113.654831 
	C101.291061,113.768517 102.655457,113.882210 104.019852,113.995895 
z"/>
<path fill="#CFCFCF" opacity="1.000000" stroke="none" 
	d="
M101.199081,69.936966 
	C99.865250,75.674522 96.807922,77.651154 89.233932,77.528496 
	C88.110123,75.221245 87.262367,73.157463 85.943390,69.946503 
	C91.200684,69.946503 95.977722,69.946503 101.199081,69.936966 
z"/>
<path fill="#DF83A7" opacity="1.000000" stroke="none" 
	d="
M71.827690,68.415726 
	C71.959648,68.010086 72.134224,67.988708 72.572571,67.964790 
	C74.457298,71.701752 76.078239,75.441246 77.564468,79.606140 
	C77.262299,79.996002 77.094833,79.960464 76.927368,79.924927 
	C74.209259,79.163162 71.491158,78.401398 68.485527,77.415833 
	C67.072716,75.496025 65.947426,73.800034 65.028023,72.414352 
	C67.654884,71.026726 69.762596,69.913353 71.827690,68.415726 
z"/>
<path fill="#EB91B3" opacity="1.000000" stroke="none" 
	d="
M105.300690,79.202454 
	C106.260391,76.249702 107.588333,73.478790 109.031082,70.355469 
	C111.648094,70.150925 114.150291,70.298798 116.903770,70.461510 
	C116.535736,72.512604 116.259926,74.049690 116.156006,75.981850 
	C116.327881,76.376915 116.190208,76.352112 115.829315,76.139816 
	C114.650200,76.279434 113.831978,76.631340 113.013763,76.983246 
	C110.565483,77.783592 108.117203,78.583939 105.300690,79.202454 
z"/>
<path fill="#B9B9B9" opacity="1.000000" stroke="none" 
	d="
M104.022339,108.266922 
	C102.320206,108.610573 100.499825,108.641151 98.253021,108.509789 
	C99.852432,108.216507 101.878250,108.085175 104.022339,108.266922 
z"/>
<path fill="#B9B9B9" opacity="1.000000" stroke="none" 
	d="
M104.260330,113.763832 
	C102.655457,113.882210 101.291061,113.768517 99.926659,113.654831 
	C99.870171,113.190575 99.813683,112.726326 99.757195,112.262070 
	C101.116905,112.043526 102.476616,111.824974 104.253586,111.591858 
	C104.614166,112.228775 104.557480,112.880272 104.260330,113.763832 
z"/>
<path fill="#B1B1B1" opacity="1.000000" stroke="none" 
	d="
M120.751648,68.219460 
	C121.157295,69.202591 121.329559,70.403152 121.240211,71.800705 
	C120.825157,70.810760 120.671707,69.623833 120.751648,68.219460 
z"/>
<path fill="#CFCFCF" opacity="1.000000" stroke="none" 
	d="
M100.816666,64.109245 
	C101.282181,64.496895 101.510475,65.006416 101.652466,65.799026 
	C101.237259,65.465126 100.908348,64.848122 100.816666,64.109245 
z"/>
<path fill="#CFCFCF" opacity="1.000000" stroke="none" 
	d="
M99.712234,57.129807 
	C100.164307,57.529961 100.390938,58.045650 100.494507,58.832970 
	C100.076561,58.484848 99.781670,57.865097 99.712234,57.129807 
z"/>
<path fill="#EAEAEA" opacity="1.000000" stroke="none" 
	d="
M76.945831,80.340805 
	C77.094833,79.960464 77.262299,79.996002 77.662109,79.924461 
	C88.124947,86.163498 95.757217,86.009132 104.731895,79.101936 
	C105.279930,85.538345 106.314407,86.007858 117.690186,84.354652 
	C117.771973,86.126945 117.851509,87.850563 117.951042,90.007416 
	C99.998505,90.007416 82.362106,90.007416 64.456535,90.007416 
	C64.456535,88.097076 64.456535,86.358437 64.456535,84.689651 
	C68.696663,83.139679 75.192322,89.477020 76.945831,80.340805 
z"/>
<path fill="#F8F8F8" opacity="1.000000" stroke="none" 
	d="
M113.375626,77.034233 
	C113.831978,76.631340 114.650200,76.279434 115.795715,76.078468 
	C115.327835,76.514679 114.532661,76.799950 113.375626,77.034233 
z"/>
<path fill="#DF83A7" opacity="1.000000" stroke="none" 
	d="
M73.139465,65.734360 
	C72.916130,65.017670 72.916458,64.064697 73.195786,63.028477 
	C73.437569,63.796181 73.400345,64.647133 73.139465,65.734360 
z"/>
<path fill="#DF83A7" opacity="1.000000" stroke="none" 
	d="
M74.256897,58.773170 
	C74.028976,58.033867 74.036644,57.066353 74.342407,56.029472 
	C74.591164,56.821724 74.541824,57.683338 74.256897,58.773170 
z"/>
<path fill="#DF83A7" opacity="1.000000" stroke="none" 
	d="
M75.173126,52.740116 
	C74.994972,52.018013 75.031464,51.053036 75.365860,50.025200 
	C75.571762,50.807304 75.479759,51.652275 75.173126,52.740116 
z"/>
<path fill="#E1E1E1" opacity="1.000000" stroke="none" 
	d="
M71.435127,118.804764 
	C70.928062,116.798378 70.284225,114.819420 70.861702,113.306694 
	C71.143906,112.567482 73.909637,112.140472 75.158966,112.611862 
	C76.121330,112.974976 77.097847,115.028053 76.970886,116.212021 
	C76.649155,119.212372 74.449593,119.762978 71.435127,118.804764 
z"/>
</svg>